# xmcd
#
# Track frame offsets:
#	150
#	18200
#	42230
#	56680
#	70045
#	88325
#	103415
#	119305
#	138825
#	152893
#	174290
#	186708
#	206523
#	228583
#	251720
#	271873
#
# Disc length: 3851 seconds
#
# Revision: 0
# Processed by: cddbd v1.4PL0 Copyright (c) Steve Scherf et al.
# Submitted via: EasyCDDAExtractor 4.6.9.1
#
DISCID=e60f0910
DTITLE=那英 - 相约1998超级精选
DYEAR=2001
DGENRE=女歌手
TTITLE0=相约1998
TTITLE1=醒时作梦
TTITLE2=山不转水转
TTITLE3=雾里看花
TTITLE4=白天不懂夜的黑
TTITLE5=好大一棵树
TTITLE6=天亮
TTITLE7=男人这本书
TTITLE8=漏雨的小屋
TTITLE9=为你朝思暮想
TTITLE10=千万次地问
TTITLE11=青青世界
TTITLE12=原来爱是这么难
TTITLE13=我的心中星
TTITLE14=欲走还留
TTITLE15=山沟沟
EXTD=
EXTT0=
EXTT1=
EXTT2=
EXTT3=
EXTT4=
EXTT5=
EXTT6=
EXTT7=
EXTT8=
EXTT9=
EXTT10=
EXTT11=
EXTT12=
EXTT13=
EXTT14=
EXTT15=
PLAYORDER=
